<svg width="113" height="87" viewBox="0 0 113 87" fill="none" xmlns="http://www.w3.org/2000/svg">
<g clip-path="url(#clip0_343_83)">
<path d="M110.345 60.7883L112.828 58.3057L103.31 48.7877L100.827 51.2703L110.345 60.7883Z" fill="#E34603"/>
<path d="M112.795 51.2805L110.312 48.7979L100.795 58.3158L103.277 60.7985L112.795 51.2805Z" fill="#E34603"/>
<path d="M110.345 86.0657L112.828 83.583L103.31 74.065L100.827 76.5477L110.345 86.0657Z" fill="#E34603"/>
<path d="M112.795 76.5579L110.312 74.0752L100.795 83.5932L103.277 86.0758L112.795 76.5579Z" fill="#E34603"/>
<path d="M85.322 60.7883L87.8047 58.3057L78.2867 48.7877L75.804 51.2703L85.322 60.7883Z" fill="#E34603"/>
<path d="M87.7717 51.2805L85.2891 48.7979L75.7711 58.3158L78.2537 60.7985L87.7717 51.2805Z" fill="#E34603"/>
<path d="M85.322 86.0657L87.8047 83.583L78.2867 74.065L75.804 76.5477L85.322 86.0657Z" fill="#E34603"/>
<path d="M87.7717 76.5579L85.2891 74.0752L75.7711 83.5932L78.2537 86.0758L87.7717 76.5579Z" fill="#E34603"/>
<path d="M60.283 60.7707L62.7656 58.2881L53.2476 48.7701L50.765 51.2527L60.283 60.7707Z" fill="#E34603"/>
<path d="M62.7639 51.2668L60.2812 48.7842L50.7633 58.3022L53.2459 60.7848L62.7639 51.2668Z" fill="#E34603"/>
<path d="M60.283 86.048L62.7656 83.5654L53.2476 74.0474L50.765 76.5301L60.283 86.048Z" fill="#E34603"/>
<path d="M62.7639 76.5441L60.2812 74.0615L50.7633 83.5795L53.2459 86.0621L62.7639 76.5441Z" fill="#E34603"/>
<path d="M35.283 60.7883L37.7656 58.3057L28.2476 48.7877L25.765 51.2703L35.283 60.7883Z" fill="#E34603"/>
<path d="M37.7328 51.2786L35.2501 48.7959L25.7321 58.3139L28.2148 60.7965L37.7328 51.2786Z" fill="#E34603"/>
<path d="M35.283 86.0657L37.7656 83.583L28.2476 74.065L25.765 76.5477L35.283 86.0657Z" fill="#E34603"/>
<path d="M37.7328 76.5559L35.2501 74.0732L25.7321 83.5912L28.2148 86.0739L37.7328 76.5559Z" fill="#E34603"/>
<path d="M10.2595 60.7883L12.7422 58.3057L3.22423 48.7877L0.741577 51.2703L10.2595 60.7883Z" fill="#E34603"/>
<path d="M12.717 51.2766L10.2344 48.7939L0.716431 58.3119L3.19909 60.7946L12.717 51.2766Z" fill="#E34603"/>
<path d="M10.2595 86.0657L12.7422 83.583L3.22423 74.065L0.741577 76.5477L10.2595 86.0657Z" fill="#E34603"/>
<path d="M12.717 76.5539L10.2344 74.0713L0.716431 83.5893L3.19909 86.0719L12.717 76.5539Z" fill="#E34603"/>
<path d="M110.345 35.6379L112.828 33.1553L103.31 23.6373L100.827 26.1199L110.345 35.6379Z" fill="#E34603"/>
<path d="M112.803 26.1028L110.32 23.6201L100.802 33.1381L103.285 35.6208L112.803 26.1028Z" fill="#E34603"/>
<path d="M85.3298 35.6379L87.8125 33.1553L78.2945 23.6373L75.8118 26.1199L85.3298 35.6379Z" fill="#E34603"/>
<path d="M87.7873 26.1028L85.3047 23.6201L75.7867 33.1381L78.2693 35.6208L87.7873 26.1028Z" fill="#E34603"/>
<path d="M60.2518 35.6242L62.7344 33.1416L53.2164 23.6236L50.7338 26.1062L60.2518 35.6242Z" fill="#E34603"/>
<path d="M62.7403 26.093L60.2577 23.6104L50.7397 33.1283L53.2223 35.611L62.7403 26.093Z" fill="#E34603"/>
<path d="M35.2908 35.6399L37.7734 33.1572L28.2554 23.6392L25.7728 26.1219L35.2908 35.6399Z" fill="#E34603"/>
<path d="M37.7483 26.1047L35.2656 23.6221L25.7476 33.1401L28.2303 35.6227L37.7483 26.1047Z" fill="#E34603"/>
<path d="M10.2752 35.6399L12.7578 33.1572L3.23986 23.6392L0.757202 26.1219L10.2752 35.6399Z" fill="#E34603"/>
<path d="M12.7328 26.1047L10.2501 23.6221L0.732056 33.1401L3.21471 35.6227L12.7328 26.1047Z" fill="#E34603"/>
<path d="M110.33 12.2121L112.812 9.72947L103.295 0.211487L100.812 2.69414L110.33 12.2121Z" fill="#E34603"/>
<path d="M112.803 2.69262L110.32 0.209961L100.802 9.72795L103.285 12.2106L112.803 2.69262Z" fill="#E34603"/>
<path d="M85.3141 12.2141L87.7968 9.73143L78.2788 0.21344L75.7961 2.69609L85.3141 12.2141Z" fill="#E34603"/>
<path d="M87.7873 2.69457L85.3047 0.211914L75.7867 9.7299L78.2694 12.2126L87.7873 2.69457Z" fill="#E34603"/>
<path d="M60.2362 12.1984L62.7189 9.7158L53.2009 0.197815L50.7183 2.68042L60.2362 12.1984Z" fill="#E34603"/>
<path d="M62.7327 2.68475L60.2501 0.202148L50.7321 9.72014L53.2147 12.2027L62.7327 2.68475Z" fill="#E34603"/>
<path d="M35.2752 12.2141L37.7578 9.73143L28.2398 0.21344L25.7572 2.69609L35.2752 12.2141Z" fill="#E34603"/>
<path d="M37.7483 2.69457L35.2656 0.211914L25.7476 9.7299L28.2303 12.2126L37.7483 2.69457Z" fill="#E34603"/>
<path d="M10.2595 12.2141L12.7422 9.73143L3.22424 0.21344L0.741577 2.69609L10.2595 12.2141Z" fill="#E34603"/>
<path d="M12.7327 2.69457L10.25 0.211914L0.732056 9.7299L3.21471 12.2126L12.7327 2.69457Z" fill="#E34603"/>
</g>
<defs>
<clipPath id="clip0_343_83">
<rect width="113" height="87" fill="white"/>
</clipPath>
</defs>
</svg>
