<svg width="41" height="41" viewBox="0 0 41 41" fill="none" xmlns="http://www.w3.org/2000/svg">
<mask id="mask0_343_70" style="mask-type:luminance" maskUnits="userSpaceOnUse" x="0" y="0" width="41" height="41">
<path d="M40.0234 0.986328H0.0234375V40.9863H40.0234V0.986328Z" fill="white"/>
</mask>
<g mask="url(#mask0_343_70)">
<path d="M15.7388 3.8418H1.45312V18.1275H15.7388V3.8418Z" stroke="#E34603" stroke-width="1.5" stroke-linecap="round" stroke-linejoin="round"/>
<path d="M37.8795 39.5605H23.5938" stroke="#E34603" stroke-width="1.5" stroke-linecap="round" stroke-linejoin="round"/>
<path d="M23.5938 25.2715H37.8795" stroke="#E34603" stroke-width="1.5" stroke-linecap="round" stroke-linejoin="round"/>
<path d="M23.5938 32.4199H37.8795" stroke="#E34603" stroke-width="1.5" stroke-linecap="round" stroke-linejoin="round"/>
<path d="M38.5971 18.1303H22.8828L30.74 2.41602L38.5971 18.1303Z" stroke="#E34603" stroke-width="1.5" stroke-linecap="round" stroke-linejoin="round"/>
<path d="M8.59598 39.5572C12.5409 39.5572 15.7388 36.3592 15.7388 32.4143C15.7388 28.4695 12.5409 25.2715 8.59598 25.2715C4.65109 25.2715 1.45312 28.4695 1.45312 32.4143C1.45312 36.3592 4.65109 39.5572 8.59598 39.5572Z" stroke="#E34603" stroke-width="1.5" stroke-linecap="round" stroke-linejoin="round"/>
</g>
</svg>
